<mxfile host="app.diagrams.net" modified="2024-01-24T06:40:54.306Z" agent="Mozilla/5.0 (Windows NT 10.0; Win64; x64) AppleWebKit/537.36 (KHTML, like Gecko) Chrome/120.0.0.0 Safari/537.36 OPR/106.0.0.0" version="22.1.21" etag="UV9L41xtHj85xjR975se" type="github">
  <diagram name="Page-1" id="c2zMVEOOuRRbfxHh7mJ0">
    <mxGraphModel>
      <root>
        <mxCell id="0" />
        <mxCell id="1" parent="0" />
      </root>
    </mxGraphModel>
  </diagram>
</mxfile>
